<mxfile host="app.diagrams.net" agent="Mozilla/5.0 (Windows NT 10.0; Win64; x64) AppleWebKit/537.36 (KHTML, like Gecko) Chrome/137.0.0.0 Safari/537.36" version="27.1.4">
  <diagram name="Page-1" id="te2G_c3zPaJbm-FxAFYL">
    <mxGraphModel dx="1426" dy="777" grid="1" gridSize="10" guides="1" tooltips="1" connect="1" arrows="1" fold="1" page="1" pageScale="1" pageWidth="850" pageHeight="1100" math="0" shadow="0">
      <root>
        <mxCell id="0" />
        <mxCell id="1" parent="0" />
        <mxCell id="0rRupSJ0RMh9DNRecKhF-1" value="&lt;font style=&quot;font-size: 24px;&quot;&gt;A UNIVERSITY CONCEPTUAL&amp;nbsp; MODEL&lt;/font&gt;" style="rounded=0;whiteSpace=wrap;html=1;labelBackgroundColor=none;fillColor=#182E3E;strokeColor=#FFFFFF;fontColor=#FFFFFF;" vertex="1" parent="1">
          <mxGeometry x="120" y="130" width="660" height="90" as="geometry" />
        </mxCell>
        <mxCell id="0rRupSJ0RMh9DNRecKhF-6" style="edgeStyle=orthogonalEdgeStyle;rounded=0;orthogonalLoop=1;jettySize=auto;html=1;entryX=0;entryY=0.5;entryDx=0;entryDy=0;endArrow=none;startFill=0;startArrow=ERmandOne;labelBackgroundColor=none;strokeColor=#23445D;fontColor=default;" edge="1" parent="1" source="0rRupSJ0RMh9DNRecKhF-2" target="0rRupSJ0RMh9DNRecKhF-3">
          <mxGeometry relative="1" as="geometry" />
        </mxCell>
        <mxCell id="0rRupSJ0RMh9DNRecKhF-2" value="&lt;font style=&quot;font-size: 14px;&quot;&gt;UNIVERSITY&lt;/font&gt;" style="rounded=1;whiteSpace=wrap;html=1;labelBackgroundColor=none;fillColor=#182E3E;strokeColor=#FFFFFF;fontColor=#FFFFFF;" vertex="1" parent="1">
          <mxGeometry x="60" y="360" width="120" height="70" as="geometry" />
        </mxCell>
        <mxCell id="0rRupSJ0RMh9DNRecKhF-7" style="edgeStyle=orthogonalEdgeStyle;rounded=0;orthogonalLoop=1;jettySize=auto;html=1;endArrow=ERoneToMany;startFill=0;endFill=0;labelBackgroundColor=none;strokeColor=#23445D;fontColor=default;" edge="1" parent="1" source="0rRupSJ0RMh9DNRecKhF-3" target="0rRupSJ0RMh9DNRecKhF-4">
          <mxGeometry relative="1" as="geometry" />
        </mxCell>
        <mxCell id="0rRupSJ0RMh9DNRecKhF-3" value="" style="rhombus;whiteSpace=wrap;html=1;labelBackgroundColor=none;fillColor=#182E3E;strokeColor=#FFFFFF;fontColor=#FFFFFF;" vertex="1" parent="1">
          <mxGeometry x="320" y="355" width="80" height="80" as="geometry" />
        </mxCell>
        <mxCell id="0rRupSJ0RMh9DNRecKhF-16" style="edgeStyle=orthogonalEdgeStyle;rounded=0;orthogonalLoop=1;jettySize=auto;html=1;entryX=0;entryY=0.5;entryDx=0;entryDy=0;labelBackgroundColor=none;strokeColor=#23445D;fontColor=default;endArrow=none;startFill=0;startArrow=ERmandOne;" edge="1" parent="1" source="0rRupSJ0RMh9DNRecKhF-4" target="0rRupSJ0RMh9DNRecKhF-8">
          <mxGeometry relative="1" as="geometry" />
        </mxCell>
        <mxCell id="0rRupSJ0RMh9DNRecKhF-4" value="&lt;font style=&quot;font-size: 14px;&quot;&gt;FACULTY&lt;/font&gt;" style="rounded=1;whiteSpace=wrap;html=1;labelBackgroundColor=none;fillColor=#182E3E;strokeColor=#FFFFFF;fontColor=#FFFFFF;" vertex="1" parent="1">
          <mxGeometry x="480" y="360" width="120" height="70" as="geometry" />
        </mxCell>
        <mxCell id="0rRupSJ0RMh9DNRecKhF-17" value="" style="edgeStyle=orthogonalEdgeStyle;rounded=0;orthogonalLoop=1;jettySize=auto;html=1;labelBackgroundColor=none;strokeColor=#23445D;fontColor=default;endArrow=ERoneToMany;startFill=0;endFill=0;" edge="1" parent="1" source="0rRupSJ0RMh9DNRecKhF-8" target="0rRupSJ0RMh9DNRecKhF-10">
          <mxGeometry relative="1" as="geometry" />
        </mxCell>
        <mxCell id="0rRupSJ0RMh9DNRecKhF-8" value="contain" style="rhombus;whiteSpace=wrap;html=1;labelBackgroundColor=none;fillColor=#182E3E;strokeColor=#FFFFFF;fontColor=#FFFFFF;" vertex="1" parent="1">
          <mxGeometry x="730" y="355" width="80" height="80" as="geometry" />
        </mxCell>
        <mxCell id="0rRupSJ0RMh9DNRecKhF-10" value="&lt;font style=&quot;font-size: 14px;&quot;&gt;DEPARTMENT&lt;/font&gt;" style="rounded=1;whiteSpace=wrap;html=1;labelBackgroundColor=none;fillColor=#182E3E;strokeColor=#FFFFFF;fontColor=#FFFFFF;" vertex="1" parent="1">
          <mxGeometry x="900" y="365" width="120" height="60" as="geometry" />
        </mxCell>
        <mxCell id="0rRupSJ0RMh9DNRecKhF-21" value="" style="edgeStyle=orthogonalEdgeStyle;rounded=0;orthogonalLoop=1;jettySize=auto;html=1;labelBackgroundColor=none;strokeColor=#23445D;fontColor=default;endArrow=none;startFill=0;startArrow=ERoneToMany;" edge="1" parent="1" source="0rRupSJ0RMh9DNRecKhF-14" target="0rRupSJ0RMh9DNRecKhF-18">
          <mxGeometry relative="1" as="geometry" />
        </mxCell>
        <mxCell id="0rRupSJ0RMh9DNRecKhF-14" value="&lt;font style=&quot;font-size: 14px;&quot;&gt;COURSE&lt;/font&gt;" style="rounded=1;whiteSpace=wrap;html=1;labelBackgroundColor=none;fillColor=#182E3E;strokeColor=#FFFFFF;fontColor=#FFFFFF;" vertex="1" parent="1">
          <mxGeometry x="900" y="670" width="120" height="60" as="geometry" />
        </mxCell>
        <mxCell id="0rRupSJ0RMh9DNRecKhF-19" value="" style="edgeStyle=orthogonalEdgeStyle;rounded=0;orthogonalLoop=1;jettySize=auto;html=1;labelBackgroundColor=none;strokeColor=#23445D;fontColor=default;endArrow=ERoneToMany;startFill=0;startArrow=none;endFill=0;" edge="1" parent="1" source="0rRupSJ0RMh9DNRecKhF-18" target="0rRupSJ0RMh9DNRecKhF-10">
          <mxGeometry relative="1" as="geometry" />
        </mxCell>
        <mxCell id="0rRupSJ0RMh9DNRecKhF-18" value="offers" style="rhombus;whiteSpace=wrap;html=1;labelBackgroundColor=none;fillColor=#182E3E;strokeColor=#FFFFFF;fontColor=#FFFFFF;" vertex="1" parent="1">
          <mxGeometry x="920" y="500" width="80" height="80" as="geometry" />
        </mxCell>
        <mxCell id="0rRupSJ0RMh9DNRecKhF-24" value="" style="edgeStyle=orthogonalEdgeStyle;rounded=0;orthogonalLoop=1;jettySize=auto;html=1;labelBackgroundColor=none;strokeColor=#23445D;fontColor=default;endArrow=ERoneToMany;startFill=0;endFill=0;" edge="1" parent="1" source="0rRupSJ0RMh9DNRecKhF-22" target="0rRupSJ0RMh9DNRecKhF-14">
          <mxGeometry relative="1" as="geometry" />
        </mxCell>
        <mxCell id="0rRupSJ0RMh9DNRecKhF-22" value="teach" style="rhombus;whiteSpace=wrap;html=1;labelBackgroundColor=none;fillColor=#182E3E;strokeColor=#FFFFFF;fontColor=#FFFFFF;" vertex="1" parent="1">
          <mxGeometry x="720" y="660" width="80" height="80" as="geometry" />
        </mxCell>
        <mxCell id="0rRupSJ0RMh9DNRecKhF-26" value="" style="edgeStyle=orthogonalEdgeStyle;rounded=0;orthogonalLoop=1;jettySize=auto;html=1;labelBackgroundColor=none;strokeColor=#23445D;fontColor=default;endArrow=none;startFill=0;startArrow=ERoneToMany;" edge="1" parent="1" source="0rRupSJ0RMh9DNRecKhF-25" target="0rRupSJ0RMh9DNRecKhF-22">
          <mxGeometry relative="1" as="geometry" />
        </mxCell>
        <mxCell id="0rRupSJ0RMh9DNRecKhF-25" value="&lt;font style=&quot;font-size: 14px;&quot;&gt;PROFESSOR&lt;/font&gt;" style="rounded=1;whiteSpace=wrap;html=1;labelBackgroundColor=none;fillColor=#182E3E;strokeColor=#FFFFFF;fontColor=#FFFFFF;" vertex="1" parent="1">
          <mxGeometry x="490" y="670" width="120" height="60" as="geometry" />
        </mxCell>
        <mxCell id="0rRupSJ0RMh9DNRecKhF-27" value="&lt;div style=&quot;text-align: right;&quot;&gt;&lt;span style=&quot;background-color: transparent; color: light-dark(rgb(255, 255, 255), rgb(18, 18, 18));&quot;&gt;&lt;font style=&quot;font-size: 22px;&quot;&gt;&lt;b style=&quot;&quot;&gt;LOGICAL RELATIONSHIP MODEL&lt;/b&gt;&lt;/font&gt;&lt;/span&gt;&lt;/div&gt;&lt;div style=&quot;text-align: right;&quot;&gt;&lt;font size=&quot;3&quot;&gt;&lt;br&gt;&lt;/font&gt;&lt;/div&gt;&lt;div&gt;&lt;font size=&quot;3&quot;&gt;&lt;br&gt;&lt;/font&gt;&lt;/div&gt;&lt;div&gt;&lt;font size=&quot;3&quot;&gt;&lt;br&gt;&lt;/font&gt;&lt;/div&gt;&lt;div&gt;&lt;font size=&quot;3&quot;&gt;&lt;br&gt;&lt;/font&gt;&lt;/div&gt;&lt;div&gt;&lt;font size=&quot;3&quot; style=&quot;&quot;&gt;&lt;br&gt;&lt;/font&gt;&lt;div&gt;&lt;font style=&quot;font-size: 19px;&quot;&gt;University(&lt;u style=&quot;&quot;&gt;uni_id&lt;/u&gt;, uni_name, year, address,location)&lt;/font&gt;&lt;/div&gt;&lt;div&gt;&lt;font style=&quot;font-size: 19px;&quot;&gt;Faculty(&lt;u&gt;faculty_id&lt;/u&gt;, name, #uni_id)&lt;/font&gt;&lt;/div&gt;&lt;div&gt;&lt;font style=&quot;font-size: 19px;&quot;&gt;Department(&lt;u&gt;dept_id&lt;/u&gt;, dept_name, #faculty_id)&lt;/font&gt;&lt;/div&gt;&lt;div&gt;&lt;font style=&quot;font-size: 19px;&quot;&gt;Course(&lt;u&gt;course_id&lt;/u&gt;, cousre_name, code)&lt;/font&gt;&lt;/div&gt;&lt;div&gt;&lt;font style=&quot;font-size: 19px;&quot;&gt;Professor(&lt;u&gt;profs_id&lt;/u&gt;, name,phone_num, email_address,)&lt;/font&gt;&lt;/div&gt;&lt;div&gt;&lt;font style=&quot;font-size: 19px;&quot;&gt;&lt;br&gt;&lt;/font&gt;&lt;/div&gt;&lt;div&gt;&lt;font style=&quot;font-size: 19px;&quot;&gt;&lt;br&gt;&lt;/font&gt;&lt;/div&gt;&lt;div&gt;&lt;font style=&quot;font-size: 19px;&quot;&gt;&lt;br&gt;&lt;/font&gt;&lt;/div&gt;&lt;div&gt;&lt;font style=&quot;font-size: 19px;&quot;&gt;Offers( #dept_id,#course_id,)&lt;/font&gt;&lt;/div&gt;&lt;div&gt;&lt;font style=&quot;font-size: 19px;&quot;&gt;Teach(#course_id, #profs_id)&lt;/font&gt;&lt;/div&gt;&lt;/div&gt;" style="rounded=0;whiteSpace=wrap;html=1;strokeColor=#FFFFFF;fontColor=#FFFFFF;fillColor=#182E3E;align=left;" vertex="1" parent="1">
          <mxGeometry x="270" y="908" width="820" height="430" as="geometry" />
        </mxCell>
      </root>
    </mxGraphModel>
  </diagram>
</mxfile>
